<svg width="23" height="17" viewBox="0 0 23 17" fill="none" xmlns="http://www.w3.org/2000/svg">
  <path d="M2.12484 0.166687C1.5723 0.166687 1.0424 0.38618 0.651698 0.776881C0.260997 1.16758 0.0415039 1.69749 0.0415039 2.25002V13.7084H2.12484C2.12484 14.5372 2.45408 15.332 3.04013 15.9181C3.62618 16.5041 4.42104 16.8334 5.24984 16.8334C6.07864 16.8334 6.8735 16.5041 7.45955 15.9181C8.0456 15.332 8.37484 14.5372 8.37484 13.7084H14.6248C14.6248 14.5372 14.9541 15.332 15.5401 15.9181C16.1262 16.5041 16.921 16.8334 17.7498 16.8334C18.5786 16.8334 19.3735 16.5041 19.9595 15.9181C20.5456 15.332 20.8748 14.5372 20.8748 13.7084H22.9582V8.50002L19.8332 4.33335H16.7082V0.166687M9.4165 2.25002L13.5832 6.41669L9.4165 10.5834V7.45835H3.1665V5.37502H9.4165M16.7082 5.89585H19.3123L21.3644 8.50002H16.7082M5.24984 12.1459C5.66424 12.1459 6.06167 12.3105 6.35469 12.6035C6.64772 12.8965 6.81234 13.294 6.81234 13.7084C6.81234 14.1228 6.64772 14.5202 6.35469 14.8132C6.06167 15.1062 5.66424 15.2709 5.24984 15.2709C4.83544 15.2709 4.43801 15.1062 4.14498 14.8132C3.85196 14.5202 3.68734 14.1228 3.68734 13.7084C3.68734 13.294 3.85196 12.8965 4.14498 12.6035C4.43801 12.3105 4.83544 12.1459 5.24984 12.1459ZM17.7498 12.1459C18.1642 12.1459 18.5617 12.3105 18.8547 12.6035C19.1477 12.8965 19.3123 13.294 19.3123 13.7084C19.3123 14.1228 19.1477 14.5202 18.8547 14.8132C18.5617 15.1062 18.1642 15.2709 17.7498 15.2709C17.3354 15.2709 16.938 15.1062 16.645 14.8132C16.352 14.5202 16.1873 14.1228 16.1873 13.7084C16.1873 13.294 16.352 12.8965 16.645 12.6035C16.938 12.3105 17.3354 12.1459 17.7498 12.1459Z" fill="currentColor"/>
</svg>