<svg width="23" height="21" viewBox="0 0 23 21" fill="none" xmlns="http://www.w3.org/2000/svg">
    <path d="M8.07523 20.9999C8.94358 20.9999 9.64752 20.2836 9.64752 19.3999C9.64752 18.5163 8.94358 17.7999 8.07523 17.7999C7.20687 17.7999 6.50293 18.5163 6.50293 19.3999C6.50293 20.2836 7.20687 20.9999 8.07523 20.9999Z" fill="white"/>
    <path d="M18.2954 20.9999C19.1638 20.9999 19.8677 20.2836 19.8677 19.3999C19.8677 18.5163 19.1638 17.7999 18.2954 17.7999C17.4271 17.7999 16.7231 18.5163 16.7231 19.3999C16.7231 20.2836 17.4271 20.9999 18.2954 20.9999Z" fill="white"/>
    <path d="M4.37061 5H22L19.4057 14.24C19.3131 14.5753 19.1149 14.8705 18.8415 15.08C18.5681 15.2896 18.2347 15.402 17.8924 15.4H8.47824C8.13596 15.402 7.80249 15.2896 7.52909 15.08C7.25568 14.8705 7.05747 14.5753 6.9649 14.24L3.40758 1.58C3.36057 1.41275 3.26128 1.26566 3.12474 1.161C2.9882 1.05634 2.82185 0.999817 2.65091 1H1" stroke="white" stroke-width="2" stroke-linecap="round" stroke-linejoin="round"/>
</svg>