<svg width="34" height="34" viewBox="0 0 34 34" fill="none" xmlns="http://www.w3.org/2000/svg">
    <path d="M27.625 12.75H19.125V4.25H6.375V29.75H27.625V12.75ZM26.7453 10.625L21.25 5.12975V10.625H26.7453ZM5.3125 2.125H21.25L29.75 10.625V30.8125C29.75 31.0943 29.6381 31.3645 29.4388 31.5638C29.2395 31.7631 28.9693 31.875 28.6875 31.875H5.3125C5.03071 31.875 4.76046 31.7631 4.5612 31.5638C4.36194 31.3645 4.25 31.0943 4.25 30.8125V3.1875C4.25 2.90571 4.36194 2.63546 4.5612 2.4362C4.76046 2.23694 5.03071 2.125 5.3125 2.125ZM10.625 17H23.375V19.125H10.625V17ZM10.625 10.625H15.9375V12.75H10.625V10.625ZM10.625 23.375H23.375V25.5H10.625V23.375Z" fill="black"/>
</svg>