<svg width="236" height="71" viewBox="0 0 236 71" fill="none" xmlns="http://www.w3.org/2000/svg">
    <g clip-path="url(#clip0_428_199)">
        <path fill-rule="evenodd" clip-rule="evenodd" d="M81.8135 35.3723V70.744H158.906H236V35.3723V0H158.906H81.8135V35.3723ZM234.623 18.1044V34.8309H159.005H83.3864V18.1044V1.3773H159.005H234.623V18.1044ZM211.121 8.72249C206.459 9.42265 203.746 12.8355 203.746 17.9993C203.746 25.1839 209.032 28.9817 215.94 26.762C217.205 26.3552 217.138 26.4355 216.875 25.6314C216.621 24.8545 216.676 24.8716 215.657 25.2383C212.854 26.2466 209.784 25.9349 207.986 24.4596C204.886 21.9157 204.659 15.1355 207.57 12.0728C209.475 10.0691 213.039 9.62101 215.857 11.0308L216.413 11.3088L216.668 10.6713C217.018 9.79635 217.024 9.80815 216.136 9.45748C214.55 8.83053 212.451 8.52236 211.121 8.72249ZM144.206 9.01413C144.044 9.03597 143.502 9.12393 143.001 9.20953L142.091 9.36539V18.1623V26.9597H142.927H143.763V23.5292V20.0992L145.902 20.0437C151.35 19.9026 153.576 18.6222 154.002 15.3841C154.414 12.2564 152.882 10.0437 149.743 9.23492C148.955 9.03184 145.185 8.8813 144.206 9.01413ZM103.84 9.17884C103.84 9.2485 103.751 10.2338 103.643 11.3679C103.383 14.0971 102.999 19.5195 102.811 23.1224C102.728 24.7187 102.636 26.2354 102.607 26.4922L102.555 26.9597H103.443H104.331L104.332 26.148C104.333 25.3917 104.497 21.8059 104.722 17.6616C104.844 15.4142 105.14 12.1023 105.219 12.1023C105.279 12.1023 107.83 17.2419 108.491 18.6948C108.676 19.1003 109.034 19.8613 109.287 20.3855C109.541 20.9098 110.049 22.0167 110.417 22.8455L111.088 24.3521H111.855H112.623L113.108 23.27C114.789 19.5159 118.288 12.2776 118.477 12.1607C118.534 12.1253 118.597 12.3892 118.632 12.8148C118.665 13.2074 118.757 14.3037 118.837 15.2506C118.988 17.0282 119.096 19.0779 119.282 23.6632C119.342 25.1243 119.411 26.4638 119.437 26.6398L119.484 26.9597H120.315H121.146V26.6545C121.146 25.3664 120.552 16.0925 120.26 12.8402C120.153 11.6495 120.041 10.3879 120.011 10.036C119.921 9.01354 119.955 9.05191 119.149 9.05368L118.442 9.05604L117.767 10.2592C117.154 11.3508 114.715 16.2365 113.997 17.8092C112.038 22.1035 111.805 22.5645 111.805 22.1495C111.805 22.0692 110.565 19.343 109.271 16.5789C108.468 14.8634 106.411 10.8076 105.865 9.86365L105.396 9.05191H104.618C104.049 9.05191 103.84 9.08615 103.84 9.17884ZM130.536 9.2544C130.499 9.36952 130.252 9.92504 129.988 10.4882C129.723 11.0514 129.106 12.4529 128.617 13.603C128.128 14.753 127.669 15.8262 127.597 15.9886C127.526 16.1509 127.171 17.0365 126.809 17.9568C126.446 18.8766 126.104 19.7403 126.046 19.8755C125.989 20.0107 125.862 20.3424 125.764 20.6134C125.666 20.8838 125.492 21.3484 125.376 21.6465C125.26 21.9441 124.986 22.6743 124.766 23.27C124.546 23.8651 124.308 24.5068 124.237 24.6963C124.167 24.8858 123.978 25.3953 123.818 25.828C123.658 26.2607 123.495 26.6947 123.456 26.7915C123.39 26.9538 123.453 26.965 124.299 26.9391L125.215 26.9101L125.796 25.2867C126.115 24.394 126.513 23.2983 126.679 22.8515L126.982 22.0397L131.366 22.0409L135.749 22.0421L136.273 23.5416C136.56 24.3663 136.958 25.4726 137.158 25.9998L137.519 26.9591H138.44C139.543 26.9597 139.53 27.2171 138.553 24.6963C138.165 23.6951 137.791 22.721 137.721 22.5321C136.986 20.5213 136.414 19.0324 135.776 17.4645C134.512 14.3604 133.418 11.7923 132.738 10.3312L132.166 9.1015L131.384 9.07257C130.66 9.0466 130.598 9.05958 130.536 9.2544ZM157.431 18.0058V26.9597H158.267H159.103V18.7438V10.5278H163.921H168.74V18.7438V26.9597H169.576H170.411V18.0058V9.05191H163.921H157.431V18.0058ZM175.23 18.0058V26.9597H180.687H186.145V26.2218V25.4838H181.523H176.901V21.8921V18.301H180.736H184.571V17.5631V16.8251H180.736H176.901V13.6767V10.5278H181.179H185.456V9.78985V9.05191H180.343H175.23V18.0058ZM189.586 18.0058V26.9597H190.422H191.258V22.587C191.258 17.9161 191.249 17.9958 191.758 18.3429C191.943 18.4692 192.359 18.7438 192.684 18.9533C194.993 20.4446 198.286 23.7246 200.104 26.3446L200.53 26.9597H201.45C202.549 26.9597 202.537 27.014 201.719 25.8056C200.001 23.2682 196.582 19.7822 194.116 18.053L193.331 17.5028L194.286 16.6037C194.811 16.1096 196.723 14.2193 198.535 12.4034L201.829 9.1015L200.832 9.07316L199.836 9.04541L199.211 9.71311C197.209 11.852 191.638 17.3003 191.353 17.3989C191.293 17.4196 191.258 15.8882 191.258 13.2422V9.05191H190.422H189.586V18.0058ZM148.876 10.5786C151.378 11.1583 152.579 12.829 152.217 15.2223C151.846 17.6681 150.388 18.4527 146 18.5655L143.763 18.6227V14.5853V10.5479L144.575 10.4469C145.733 10.3029 147.984 10.3714 148.876 10.5786ZM132.189 12.9878C132.914 14.6963 134.386 18.3524 134.844 19.5803C134.975 19.9316 135.115 20.297 135.156 20.392C135.225 20.5544 135.008 20.5638 131.373 20.5638C128.328 20.5638 127.527 20.5384 127.566 20.441C127.632 20.274 127.866 19.6624 128.158 18.8914C128.408 18.2319 128.646 17.6162 129.244 16.0872C129.572 15.2483 130.598 12.7617 131.082 11.63C131.36 10.9812 131.313 10.9245 132.189 12.9878ZM234.623 52.7382V69.2681H159.005H83.3864V52.7382V36.2082H159.005H234.623V52.7382ZM153.239 43.7866C152.746 43.8344 152.104 43.9342 151.813 44.0074L151.286 44.1414L151.261 52.9164L151.236 61.6921H152.072H152.908V58.2485V54.8044L154.654 54.8015C160.547 54.7914 162.92 53.3563 163.192 49.6388C163.511 45.2749 159.885 43.1425 153.239 43.7866ZM112.944 44.2518C112.688 46.2856 112.179 53.0753 111.955 57.461C111.876 59.0036 111.784 60.5863 111.751 60.9789L111.69 61.6921H112.529H113.37L113.418 61.3721C113.445 61.1962 113.49 60.3661 113.519 59.5272C113.637 56.1451 113.886 51.5793 114.068 49.4422C114.175 48.1977 114.262 47.1239 114.263 47.056C114.265 46.6138 115.255 48.4569 116.958 52.074C117.206 52.6018 117.615 53.4655 117.865 53.9927C118.747 55.8535 119.738 58.0088 119.968 58.5679L120.199 59.1341H120.974H121.748L121.952 58.6665C123.361 55.4497 127.468 46.9332 127.61 46.9332C127.785 46.9332 128.153 52.2564 128.439 58.9127L128.558 61.6921H129.425H130.291L130.291 61.3721C130.29 61.1962 130.245 60.3248 130.192 59.4357C130.137 58.5461 130.027 56.6646 129.946 55.2537C129.735 51.5592 129.19 44.7058 129.053 44.0062C129.013 43.8008 128.958 43.7848 128.29 43.7848H127.571L126.776 45.2359C125.37 47.801 123.54 51.5752 121.348 56.4279L121.037 57.1168L120.69 56.3299C120.329 55.5087 119.045 52.7039 118.371 51.2623C117.556 49.5201 115.897 46.2454 115.216 45.0393L114.509 43.7854L113.756 43.7848H113.003L112.944 44.2518ZM139.556 44.2518C139.445 44.5092 139.061 45.3558 138.702 46.1339C138.343 46.912 137.968 47.7532 137.869 48.0035C137.769 48.2538 137.436 49.0561 137.128 49.7864C136.088 52.2564 135.504 53.7246 134.369 56.7231C133.825 58.1606 132.559 61.6124 132.555 61.6714C132.554 61.6868 132.959 61.6868 133.454 61.6714L134.355 61.6431L134.69 60.708C134.875 60.1937 135.106 59.552 135.206 59.2817C135.304 59.0107 135.549 58.3353 135.752 57.7798L136.119 56.7703L140.494 56.7963L144.869 56.8216L145.16 57.6582C145.61 58.9516 146.283 60.8107 146.469 61.2741L146.636 61.6921H147.56C148.6 61.6921 148.578 61.7169 148.248 60.9264C148.119 60.617 147.516 59.0355 146.908 57.412C145.177 52.7937 143.692 49.1541 142.02 45.4325L141.279 43.7848H140.518H139.758L139.556 44.2518ZM166.576 52.7382V61.6921H167.412H168.248V57.3134C168.248 54.9054 168.277 52.9353 168.313 52.9353C168.408 52.9353 169.203 53.4088 169.772 53.8037C172.219 55.5022 175.324 58.6116 176.944 60.9831L177.428 61.6921H178.398H179.367L179.249 61.4707C177.998 59.1152 173.599 54.485 170.937 52.7205C170.565 52.4743 170.349 52.2694 170.391 52.2039C170.43 52.1437 171.257 51.3361 172.231 50.4092C173.204 49.4818 175.085 47.6233 176.41 46.2785L178.819 43.8338L177.813 43.8061L176.807 43.7778L175.808 44.8392C174.604 46.1173 171.566 49.1193 169.674 50.901L168.297 52.1974L168.272 47.9911L168.246 43.7848H167.411H166.576V52.7382ZM182.113 52.7382V61.6921H187.62H193.126V60.9541V60.2162H188.455H183.783L183.809 56.6493L183.834 53.0829L187.645 53.057L191.455 53.031V52.345V51.6584L187.645 51.6324L183.834 51.607V48.4581V45.3097L188.136 45.2843L192.438 45.2584V44.5216V43.7848H187.276H182.113V52.7382ZM194.601 44.5228V45.2607H197.453H200.305V53.4761V61.6921H201.14H201.975L202.001 53.5009L202.026 45.3097L204.902 45.2838L207.778 45.2578V44.521V43.7848H201.19H194.601V44.5228ZM157.548 45.2702C160.071 45.6616 161.367 47.0094 161.364 49.2385C161.36 52.2127 159.881 53.1945 155.244 53.3019L152.908 53.3563V49.3135V45.2702L153.474 45.2348C154.796 45.1521 156.904 45.1698 157.548 45.2702ZM141.348 47.853C142.458 50.4653 144.255 55.0122 144.255 55.21C144.255 55.2584 142.582 55.2968 140.459 55.2968C136.883 55.2968 136.666 55.2867 136.73 55.1244C136.767 55.0299 137.145 54.0446 137.569 52.9353C138.542 50.3897 140.18 46.3783 140.393 46.0146C140.482 45.8641 140.595 46.0825 141.348 47.853Z" fill="#FBFBFB"/>
        <path fill-rule="evenodd" clip-rule="evenodd" d="M-0.000488281 0.5018C-0.000488281 0.68599 0.0909617 1.16831 0.202472 1.57447C0.313982 1.98005 0.497472 2.6442 0.609572 3.05036C0.883332 4.03921 1.66449 6.3593 1.83146 6.67986C1.90521 6.82096 1.96598 6.97445 1.96598 7.02109C1.96775 7.2531 3.48818 10.3229 4.06815 11.2657C4.74193 12.3603 5.33075 13.2275 5.42633 13.2665C5.47058 13.2848 5.50657 13.345 5.50657 13.4005C5.50657 13.6148 6.95502 15.2914 8.36748 16.7124C9.57226 17.9244 9.79646 18.1257 10.8484 18.9368C11.3257 19.3046 11.9016 19.7881 12.1281 20.0113C14.1843 22.0344 15.136 21.7274 16.9691 18.4486C17.0299 18.3405 17.1809 18.0749 17.3048 17.8582C17.8169 16.9644 18.0494 16.5217 20.0359 12.6637C20.289 12.1713 20.1144 11.8933 19.3226 11.5296C19.2146 11.48 18.5509 11.2528 17.8476 11.0255C15.4333 10.2444 14.117 9.70838 11.8001 8.56368C10.872 8.10498 10.5098 7.91902 10.2266 7.75549C10.1457 7.70885 9.94632 7.60377 9.78407 7.52112C9.62182 7.43906 9.29024 7.24306 9.04657 7.08544C8.80349 6.92781 8.47132 6.72945 8.30907 6.64385C7.61818 6.28078 3.52358 3.36974 3.19613 3.00845C3.14185 2.94882 2.83269 2.67962 2.50878 2.40924C1.74001 1.76811 1.26329 1.34778 0.568862 0.698388L0.000101719 0.167068L-0.000488281 0.5018ZM71.019 1.28225C70.4089 1.87556 69.8909 2.36142 69.8679 2.36142C69.8449 2.36142 69.7222 2.46119 69.5953 2.5828C68.8413 3.30717 65.9769 5.50978 65.7892 5.50978C65.7332 5.50978 65.6866 5.54638 65.6866 5.59007C65.6866 5.63434 65.5049 5.77839 65.2818 5.91004C65.0594 6.04169 64.7609 6.22588 64.6181 6.31916C64.4759 6.41184 64.2045 6.58009 64.0151 6.69167C63.8257 6.80325 63.4941 6.99984 63.2776 7.12794C62.4947 7.59196 62.3767 7.65513 61.3601 8.16047C60.7919 8.44266 60.2503 8.71422 60.1553 8.76441C59.7223 8.99346 59.6007 9.04955 59.0001 9.2975C58.6485 9.44272 58.2284 9.61747 58.0661 9.68595C57.9039 9.75443 57.5056 9.9091 57.1811 10.0301C56.8566 10.1511 56.4802 10.2952 56.3451 10.3507C56.0106 10.4871 54.6925 10.9269 54.3291 11.0225C52.1048 11.6111 51.7455 12.3697 52.8671 14.1118C53.1302 14.521 53.3904 14.9336 53.4441 15.0287C53.4983 15.1237 53.7007 15.4449 53.8942 15.743C54.6518 16.9083 54.7781 17.1333 56.0743 19.6293C56.715 20.8631 57.036 21.1542 57.7546 21.1542C58.3074 21.1542 59.1736 20.8472 59.3936 20.5733C59.4202 20.5396 59.6969 20.3395 60.0078 20.1281C60.3187 19.9168 60.5736 19.7072 60.5736 19.6624C60.5736 19.6169 60.622 19.5803 60.6822 19.5803C60.7418 19.5803 61.1506 19.2822 61.5914 18.9179C64.5313 16.488 66.7391 13.881 68.5734 10.6754C69.0195 9.89552 70.0136 7.91016 70.0136 7.79918C70.0136 7.75077 70.1021 7.5282 70.2101 7.30446C70.3181 7.08012 70.4066 6.83749 70.4066 6.76428C70.4066 6.69108 70.4455 6.58954 70.4933 6.53818C70.6325 6.38823 71.4326 3.92527 71.7712 2.6076C72.5011 -0.237915 72.5294 -0.188325 71.019 1.28225ZM2.6551 14.5339C0.939382 15.0942 0.00187172 16.1863 0.345842 17.2242C0.564142 17.8813 3.35248 20.761 3.77079 20.761C3.80088 20.761 4.03098 20.8997 4.28232 21.0698C5.8942 22.1578 8.26187 22.7706 9.99234 22.5468C10.9942 22.4175 11.1328 22.3319 10.8508 22.0167C10.7416 21.8939 10.3517 21.4399 9.98467 21.0066C9.61769 20.5739 9.12858 19.9983 8.8973 19.7279C8.66602 19.4569 8.21762 18.9244 7.90138 18.5436C7.58514 18.1634 7.27126 17.7868 7.20459 17.7077C6.57565 16.9609 6.31369 16.6586 6.14377 16.4862C6.03462 16.3747 5.71248 16.0104 5.42751 15.6763C4.60328 14.7087 3.50588 14.2565 2.6551 14.5339ZM67.9433 14.7447C67.538 15.0045 66.4807 16.0571 65.0476 17.6262C64.3744 18.3636 64.152 18.6133 63.1378 19.7763C62.4186 20.601 62.3112 20.7209 61.4179 21.6955C60.894 22.2664 60.894 22.3591 61.4173 22.4518C62.5838 22.6596 64.7084 22.4665 65.9993 22.0362C68.6012 21.1689 72.0786 18.1682 72.0786 16.7909C72.0786 15.2164 69.3275 13.855 67.9433 14.7447ZM15.2522 28.3353C13.4604 28.6133 13.4344 29.3578 15.1147 32.2729C16.4216 34.5405 17.9001 37.3748 18.7839 39.3076C18.9574 39.6866 19.2872 40.395 19.5173 40.8821C19.7474 41.3691 20.0772 42.1 20.2501 42.5055C20.4229 42.9117 20.6236 43.3763 20.6955 43.5387C20.8177 43.8144 21.013 44.2908 21.4401 45.3587C23.2485 49.8767 23.7995 54.1491 23.0066 57.5106C22.9045 57.9433 22.7269 58.6907 22.6113 59.1713C22.2266 60.7711 22.4018 62.652 23.0715 64.1025C23.4556 64.9361 25.1677 67.0053 25.4728 67.0053C25.5247 67.0053 25.5666 67.0425 25.5666 67.0873C25.5666 67.1328 25.9542 67.4557 26.4274 67.8046C27.4605 68.5679 27.5985 68.6571 28.6753 69.2545C29.5857 69.7593 31.1692 70.3331 32.6961 70.7109C34.5228 71.1631 38.346 70.9795 40.6116 70.3307C48.0184 68.2102 50.3501 64.8286 49.3158 57.7072C49.2244 57.0779 49.1719 55.9054 49.1701 54.4549C49.1654 50.9718 49.5996 48.7639 50.9448 45.4325C51.0487 45.1757 51.2174 44.7548 51.3201 44.498C51.4227 44.2412 51.6929 43.5877 51.9213 43.0469C52.1496 42.5055 52.3726 41.9742 52.4163 41.8662C52.8647 40.7634 55.0813 36.1763 55.7421 34.985C55.8306 34.8262 56.2472 34.0735 56.6678 33.3119C57.0885 32.551 57.4738 31.862 57.5239 31.7806C59.1098 29.2202 58.7381 28.2809 56.1486 28.3004C53.729 28.3187 49.5194 29.6577 49.1831 30.5166C49.1654 30.5627 49.0981 30.5999 49.0344 30.5999C48.9105 30.5999 47.3334 32.0923 46.8508 32.6661C43.1899 37.0188 42.371 45.4378 44.8124 53.6237C44.9492 54.0836 45.1221 54.6798 45.1965 54.9485C45.2708 55.2171 45.3929 55.6156 45.4685 55.834C46.9234 60.0597 46.7924 61.9619 44.9876 62.8078C42.2636 64.0848 30.4423 63.8327 27.0911 62.4259C25.4427 61.7346 25.0621 60.5385 25.8391 58.4941C26.9625 55.537 26.884 55.7537 27.4398 54.0665C27.7077 53.2547 27.9266 52.5221 27.9266 52.4377C27.9266 52.3533 28.0098 52.0215 28.1118 51.6997C29.4582 47.438 29.2842 40.8354 27.7183 36.7608C27.6168 36.4969 27.5336 36.2431 27.5336 36.197C27.5336 36.0943 26.6386 34.2105 26.5578 34.142C26.5253 34.1154 26.3713 33.894 26.215 33.6502C24.9677 31.7085 22.1528 29.49 20.3999 29.0679C20.2401 29.0295 19.997 28.9416 19.8595 28.8725C19.1816 28.5318 16.2151 28.1853 15.2522 28.3353ZM83.3866 52.7382V69.1701H158.956H234.525V52.7382V36.3068H158.956H83.3866V52.7382ZM158.706 43.8769C161.766 44.5801 163.229 46.3169 163.229 49.2456C163.229 53.1266 161.231 54.586 155.589 54.8274L153.01 54.9378L152.984 58.3395L152.958 61.7411L152.047 61.7694L151.137 61.7977L151.162 52.92L151.188 44.0422L151.876 43.9106C153.888 43.5269 157.114 43.5103 158.706 43.8769ZM114.808 44.1538C114.954 44.4106 115.208 44.8646 115.371 45.1621C115.534 45.4597 115.701 45.7478 115.741 45.8015C115.923 46.05 119.082 52.4701 119.082 52.5935C119.082 52.6095 119.347 53.1839 119.672 53.8699C119.996 54.5559 120.262 55.1309 120.262 55.148C120.262 55.1645 120.441 55.5689 120.66 56.0459L121.059 56.9132L121.927 54.998C124.225 49.9263 125.73 46.8665 127.118 44.449L127.556 43.6863H128.278C128.676 43.6863 129.028 43.7294 129.061 43.7825C129.172 43.9625 129.537 47.7892 129.754 51.0657C129.831 52.2293 129.939 53.779 129.994 54.5092C130.048 55.2401 130.139 56.834 130.195 58.0514C130.25 59.2693 130.323 60.6088 130.357 61.0279L130.418 61.7907H129.476C128.958 61.7907 128.513 61.757 128.488 61.7169C128.463 61.6761 128.393 60.2481 128.332 58.5437C128.271 56.8388 128.178 54.7802 128.125 53.9685C127.879 50.1713 127.723 48.0206 127.658 47.533L127.588 47.0011L126.291 49.6482C125.577 51.1041 124.787 52.7382 124.534 53.2795C124.28 53.8209 123.896 54.6397 123.68 55.0996C123.338 55.8263 122.41 57.8447 121.971 58.8141L121.826 59.1341L120.97 59.1317L120.114 59.1293L119.677 58.1234C119.436 57.5696 118.988 56.5855 118.682 55.9361C118.375 55.2867 117.969 54.4236 117.779 54.0175C117.589 53.6119 117.247 52.881 117.018 52.394C116.79 51.9069 116.105 50.5013 115.497 49.2698L114.389 47.0312L114.275 48.0372C114.078 49.771 113.705 56.0908 113.595 59.5768L113.526 61.7411L112.602 61.77L111.678 61.7983L111.745 59.7528C111.782 58.6275 111.875 56.8435 111.951 55.7885C112.028 54.733 112.117 53.3167 112.15 52.6402C112.183 51.9636 112.271 50.7457 112.344 49.934C112.419 49.1222 112.506 48.0596 112.54 47.5726C112.61 46.5554 112.882 43.9921 112.94 43.809C112.967 43.7246 113.222 43.6863 113.76 43.6863H114.542L114.808 44.1538ZM141.733 44.5966C142.162 45.5093 142.899 47.1847 143.519 48.6553C143.702 49.088 144.047 49.9068 144.287 50.4753C144.527 51.0433 145.01 52.2387 145.36 53.1319C145.945 54.622 146.19 55.2631 146.865 57.0678C147.282 58.183 148.182 60.5421 148.386 61.0545C148.686 61.8101 148.707 61.7907 147.574 61.7907L146.566 61.7901L146.337 61.1755C145.996 60.2605 145.365 58.4988 145.068 57.6322L144.807 56.8689L140.492 56.8943L136.177 56.9202L135.877 57.7072C135.471 58.7745 135.285 59.2793 134.805 60.6342L134.395 61.7907H133.425C132.892 61.7907 132.455 61.7694 132.455 61.7434C132.455 61.6962 133.744 58.1494 134.191 56.9692C134.324 56.6174 134.581 55.9314 134.763 55.4444C135.79 52.6886 138.17 47.0176 139.378 44.449L139.736 43.6863H140.521H141.306L141.733 44.5966ZM168.347 47.8677L168.396 52.0002L169.183 51.2676C170.95 49.6199 175.902 44.6781 176.458 44.0062L176.723 43.6863H177.795C178.61 43.6863 178.869 43.717 178.869 43.8144C178.869 43.9596 174.766 48.124 172.182 50.6023L170.461 52.2523L170.689 52.4217C173.9 54.8009 176.93 57.8542 178.741 60.5338C179.64 61.8651 179.657 61.7907 178.447 61.7907H177.437L177.046 61.2399C174.765 58.0242 170.97 54.3994 168.569 53.1431L168.349 53.0274L168.323 57.3843L168.298 61.7411L167.388 61.7694L166.479 61.7977V52.7382V43.6786L167.388 43.7069L168.298 43.7353L168.347 47.8677ZM192.488 44.5228V45.3097L188.185 45.3351L183.884 45.3611V48.4091V51.4571L187.694 51.4825L191.504 51.5085V52.345V53.1809L187.694 53.2069L183.884 53.2329V56.7242V60.2162H188.505H193.127V61.0031V61.7907H187.571H182.015V52.8037C182.015 47.8612 182.045 43.7878 182.082 43.7512C182.118 43.7146 184.474 43.6957 187.318 43.7099L192.488 43.7353V44.5228ZM207.856 44.547L207.885 45.3587H204.98H202.075V53.5782V61.7977L201.165 61.7694L200.256 61.7411L200.231 53.5517L200.205 45.3617L197.33 45.3357L194.454 45.3097L194.424 44.7235C194.407 44.4012 194.42 44.0352 194.451 43.9112L194.508 43.6851L201.168 43.7105L207.828 43.7353L207.856 44.547ZM153.474 45.3328L153.007 45.3699V49.3637V53.358L154.85 53.289C159.911 53.1001 161.347 52.1561 161.248 49.0821C161.151 46.0252 158.838 44.9095 153.474 45.3328ZM140.303 46.4042C140.217 46.6144 139.94 47.2727 139.689 47.8677C139.286 48.8235 138.777 50.0892 137.613 53.0333C137.235 53.9921 136.782 55.2041 136.782 55.259C136.782 55.2796 138.441 55.2968 140.469 55.2968C142.94 55.2968 144.157 55.2631 144.157 55.1952C144.157 55.0949 143.851 54.2825 142.819 51.646C142.302 50.3242 140.977 47.1446 140.635 46.4042L140.46 46.0235L140.303 46.4042Z" fill="#3CAC34"/>
        <path fill-rule="evenodd" clip-rule="evenodd" d="M83.3862 18.1534V34.8309H158.956H234.525V18.1534V1.47589H158.956H83.3862V18.1534ZM215.085 8.99583C216.415 9.39668 217.05 9.72491 216.987 9.97759C216.929 10.2096 216.525 11.3508 216.487 11.3897C216.474 11.4039 216.069 11.2333 215.588 11.0107C213.607 10.0957 211.107 10.0691 209.261 10.944C204.409 13.244 204.344 22.8455 209.165 25.1202C210.71 25.8487 213.475 25.9071 215.35 25.2501C215.917 25.0511 216.453 24.864 216.54 24.8339C216.787 24.7483 217.259 26.2743 217.032 26.4249C215.796 27.2461 211.353 27.6634 209.597 27.1233C206.299 26.1084 204.281 23.6083 203.792 19.931C203.024 14.1721 205.722 9.61924 210.433 8.72072C211.258 8.5631 214.236 8.73961 215.085 8.99583ZM148.876 9.00586C152.432 9.57496 154.088 11.3118 154.088 14.4714C154.088 18.4905 152.002 19.9109 145.773 20.1329L143.861 20.2008V23.58V26.9597H142.927H141.992L142.017 18.1351L142.042 9.31048L142.337 9.23433C143.736 8.87362 147.277 8.74965 148.876 9.00586ZM105.939 9.83944C106.464 10.7415 108.649 15.0369 109.318 16.4809C109.543 16.968 109.935 17.8092 110.188 18.35C110.441 18.8914 110.912 19.9316 111.234 20.6624C111.556 21.3927 111.853 22.0238 111.891 22.0645C111.93 22.1052 112.201 21.5964 112.491 20.9334C112.782 20.2704 113.277 19.1806 113.592 18.5123C113.907 17.8441 114.165 17.2773 114.165 17.2531C114.165 16.9621 117.996 9.56375 118.373 9.1257C118.542 8.93089 119.806 8.87244 119.918 9.05427C120.114 9.37129 120.841 18.4822 121.048 23.2204C121.098 24.384 121.169 25.7011 121.204 26.148L121.268 26.9597H120.333C119.21 26.9597 119.278 27.0554 119.279 25.4508C119.281 23.1679 118.724 13.9583 118.505 12.6566C118.434 12.231 117.039 14.9431 114.413 20.6134C114.237 20.9918 113.948 21.6117 113.769 21.9907C113.591 22.3697 113.281 23.0557 113.08 23.5156L112.716 24.3521H111.864H111.013L110.441 23.0728C109.081 20.0343 105.332 12.2481 105.262 12.3195C105.069 12.5179 104.446 22.9341 104.433 26.197L104.43 26.9597H103.48H102.531L102.598 25.7542C102.634 25.0913 102.708 23.5971 102.761 22.4335C102.814 21.2699 102.902 19.7869 102.958 19.1375C103.013 18.4881 103.101 17.2041 103.154 16.2838C103.207 15.364 103.315 13.9247 103.396 13.0864C103.476 12.2475 103.59 11.052 103.647 10.4298C103.797 8.8199 103.714 8.94092 104.654 8.97457L105.452 9.00291L105.939 9.83944ZM132.4 9.43564C132.675 9.977 134.147 13.2842 134.419 13.9696C134.516 14.2146 134.801 14.9017 135.053 15.4968C135.931 17.576 136.929 20.1317 138.012 23.0728C138.234 23.6779 138.43 24.1868 139.117 25.9508L139.509 26.9597H138.463H137.417L137.087 26.0494C136.352 24.0186 135.873 22.6661 135.806 22.4335L135.735 22.1873H131.38H127.026L126.781 22.8272C126.432 23.7382 126.233 24.2848 125.739 25.6804L125.305 26.9101L124.312 26.9385L123.318 26.9662L123.615 26.1509C123.779 25.7029 123.969 25.181 124.04 24.9915C124.11 24.802 124.411 23.9832 124.71 23.1714C125.009 22.3597 125.418 21.2746 125.618 20.761C126.194 19.2881 127.258 16.6085 127.396 16.2838C127.465 16.1214 127.677 15.6125 127.868 15.1526C128.551 13.5038 130.297 9.58677 130.488 9.27329C130.679 8.95863 130.693 8.95391 131.419 8.95391H132.156L132.4 9.43564ZM170.486 17.981L170.511 26.9597H169.576H168.641V18.7438V10.5278H163.921H159.201V18.7438V26.9597H158.267H157.333V18.0224C157.333 13.1065 157.363 9.05486 157.399 9.01885C157.436 8.98225 160.389 8.96395 163.963 8.97752L170.461 9.00291L170.486 17.981ZM185.534 9.76447L185.563 10.526L181.257 10.5514L176.951 10.5774L176.925 13.6508L176.899 16.7242L180.76 16.7501L184.621 16.7761V17.5631V18.35L180.761 18.376L176.901 18.4019V21.9429V25.4838H181.572H186.243V26.2218V26.9597H180.687H175.131V17.9556V8.95214L180.319 8.97752L185.506 9.00291L185.534 9.76447ZM191.356 13.1466V17.3393L192.61 16.1592C194.309 14.5593 198.24 10.6553 199.098 9.71606L199.794 8.95391H200.83C201.4 8.95391 201.89 8.99169 201.919 9.03833C201.979 9.13633 197.087 14.0794 194.991 16.0382C193.296 17.6215 193.361 17.4491 194.231 18.0548C196.669 19.7533 200.141 23.3054 201.823 25.8221C202.631 27.0318 202.654 26.9597 201.455 26.9597H200.443L199.744 26.0004C197.656 23.1307 195.059 20.6111 192.34 18.817L191.406 18.2006L191.38 22.5799L191.354 26.9597H190.421H189.488V18.0224C189.488 13.1065 189.518 9.05545 189.554 9.01944C189.59 8.98343 190.01 8.95391 190.488 8.95391H191.356V13.1466ZM144.992 10.4918C144.613 10.5119 144.205 10.5514 144.082 10.5797L143.861 10.6299V14.5641V18.4976H145.686C150.498 18.4976 152.174 17.442 152.169 14.4147C152.164 11.4552 149.913 10.2249 144.992 10.4918ZM130.757 12.6182C130.27 13.7612 128.873 17.2348 128.334 18.6452C128.23 18.9161 128.034 19.425 127.897 19.7769L127.649 20.4162L131.296 20.4422C135.42 20.4711 135.095 20.5207 134.866 19.902C133.824 17.0866 131.593 11.6471 131.376 11.3885C131.341 11.3472 131.063 11.901 130.757 12.6182Z" fill="#1C1C1C"/>
        <path fill-rule="evenodd" clip-rule="evenodd" d="M146.05 8.92793C146.307 8.948 146.727 8.948 146.984 8.92793C147.241 8.90727 147.03 8.89074 146.517 8.89074C146.003 8.89074 145.793 8.90727 146.05 8.92793ZM175.179 18.0058C175.179 22.9577 175.191 24.9832 175.205 22.5073C175.22 20.0313 175.22 15.9803 175.205 13.5044C175.191 11.0284 175.179 13.0539 175.179 18.0058ZM191.282 13.2092C191.259 17.3151 191.28 17.6085 191.566 17.2431C191.688 17.0872 191.685 17.0837 191.53 17.2053C191.368 17.3322 191.358 17.1144 191.332 13.1714L191.305 9.00291L191.282 13.2092ZM145.906 10.4044C146.246 10.4233 146.777 10.4233 147.086 10.4038C147.395 10.3843 147.117 10.3684 146.468 10.369C145.819 10.369 145.566 10.3849 145.906 10.4044ZM198.044 10.8726C197.805 11.1158 197.631 11.3153 197.658 11.3153C197.686 11.3153 197.903 11.1158 198.142 10.8726C198.381 10.6287 198.554 10.4298 198.527 10.4298C198.5 10.4298 198.283 10.6287 198.044 10.8726ZM168.689 18.7438C168.689 23.2895 168.701 25.1349 168.715 22.8444C168.73 20.5538 168.73 16.8346 168.715 14.5794C168.701 12.3242 168.689 14.198 168.689 18.7438ZM198.879 12.1023C198.07 12.914 197.429 13.5782 197.456 13.5782C197.483 13.5782 198.168 12.914 198.978 12.1023C199.788 11.2905 200.428 10.6264 200.401 10.6264C200.374 10.6264 199.689 11.2905 198.879 12.1023ZM194.995 13.9223C194.756 14.1661 194.583 14.3651 194.61 14.3651C194.637 14.3651 194.855 14.1661 195.094 13.9223C195.333 13.6791 195.505 13.4796 195.478 13.4796C195.452 13.4796 195.234 13.6791 194.995 13.9223ZM152.247 14.4637C152.247 14.7069 152.266 14.8067 152.29 14.6851C152.313 14.5635 152.313 14.3639 152.29 14.2423C152.266 14.1207 152.247 14.2199 152.247 14.4637ZM120.481 15.6444C120.481 15.8339 120.502 15.9112 120.526 15.8168C120.551 15.7217 120.551 15.5671 120.526 15.472C120.502 15.3776 120.481 15.4549 120.481 15.6444ZM194.891 16.0134L194.553 16.3823L194.921 16.0435C195.265 15.7276 195.336 15.6444 195.26 15.6444C195.244 15.6444 195.078 15.8103 194.891 16.0134ZM192.678 16.161L192.389 16.4809L192.709 16.1917C193.007 15.9225 193.073 15.841 192.998 15.841C192.981 15.841 192.837 15.985 192.678 16.161ZM104.75 16.9727C104.751 17.1894 104.771 17.2661 104.795 17.1439C104.818 17.0211 104.817 16.844 104.793 16.7501C104.768 16.6563 104.749 16.756 104.75 16.9727ZM203.678 18.0058C203.678 18.3034 203.696 18.425 203.719 18.2762C203.741 18.1274 203.741 17.8842 203.719 17.7354C203.696 17.5867 203.678 17.7083 203.678 18.0058ZM152.657 18.2272L152.368 18.5472L152.687 18.2579C152.985 17.9887 153.052 17.9072 152.976 17.9072C152.959 17.9072 152.815 18.0513 152.657 18.2272ZM119.01 18.3996C119.01 18.6428 119.03 18.7426 119.053 18.621C119.076 18.4988 119.076 18.2998 119.053 18.1782C119.03 18.056 119.01 18.1558 119.01 18.3996ZM191.303 18.2272C191.278 18.2951 191.268 20.2982 191.282 22.6797L191.308 27.0087L191.357 22.5563C191.384 20.1075 191.394 18.1044 191.378 18.1044C191.363 18.1044 191.329 18.1593 191.303 18.2272ZM102.881 21.1052C102.883 21.3218 102.903 21.3986 102.926 21.2764C102.95 21.1536 102.949 20.9765 102.924 20.8826C102.9 20.7887 102.881 20.8885 102.881 21.1052ZM120.876 21.6955C120.878 21.9122 120.898 21.9889 120.921 21.8667C120.945 21.7439 120.944 21.5668 120.919 21.473C120.895 21.3791 120.876 21.4789 120.876 21.6955ZM104.361 24.9915C104.361 25.289 104.38 25.4112 104.402 25.2625C104.425 25.1137 104.425 24.8699 104.402 24.7211C104.38 24.5723 104.361 24.6939 104.361 24.9915ZM186.179 26.2218C186.179 26.6545 186.196 26.8192 186.217 26.5878C186.238 26.3564 186.238 26.0022 186.216 25.8009C186.195 25.5995 186.179 25.7885 186.179 26.2218ZM153.621 43.7541C153.716 43.7789 153.871 43.7789 153.965 43.7541C154.06 43.7293 153.982 43.7093 153.794 43.7093C153.604 43.7093 153.527 43.7293 153.621 43.7541ZM166.527 52.763L166.528 61.7411L167.413 61.7476L168.298 61.7541L167.438 61.7192L166.578 61.6844L166.552 52.7346L166.526 43.7848L166.527 52.763ZM194.537 44.5228C194.537 44.9555 194.555 45.1202 194.576 44.8888C194.596 44.6574 194.596 44.3032 194.575 44.1019C194.554 43.9005 194.537 44.0895 194.537 44.5228ZM151.183 44.2028C151.158 44.2707 151.148 48.2444 151.162 53.0333L151.188 61.7411L152.073 61.7476L152.958 61.7541L152.096 61.7192L151.235 61.6844L151.26 52.8822C151.274 48.0407 151.274 44.08 151.258 44.08C151.243 44.08 151.209 44.1349 151.183 44.2028ZM161.759 45.5063C161.942 45.6958 162.114 45.8511 162.141 45.8511C162.168 45.8511 162.04 45.6958 161.857 45.5063C161.673 45.3168 161.501 45.1621 161.474 45.1621C161.447 45.1621 161.575 45.3168 161.759 45.5063ZM175.671 47.056L173.804 48.9504L175.697 47.082C177.456 45.3457 177.634 45.1621 177.565 45.1621C177.551 45.1621 176.699 46.0146 175.671 47.056ZM202.042 45.3263C202.006 45.3623 201.977 49.0573 201.977 53.5381V61.6844L201.165 61.7186L200.354 61.7529L201.19 61.747L202.026 61.7411L202.075 53.5009C202.102 48.9687 202.121 45.2607 202.116 45.2607C202.112 45.2607 202.079 45.2902 202.042 45.3263ZM183.834 48.4829V51.607L187.645 51.6324L191.455 51.6584V52.345V53.031L187.645 53.0569L183.834 53.0829L183.832 56.6251L183.831 60.1672L183.858 56.6504L183.886 53.1343L187.695 53.1083L191.504 53.0829V52.345V51.607L187.695 51.5811L183.886 51.5551L183.86 48.4569L183.834 45.3587V48.4829ZM112.713 46.1463C112.713 46.3352 112.733 46.4131 112.758 46.3181C112.783 46.2236 112.783 46.0683 112.758 45.9739C112.733 45.8794 112.713 45.9568 112.713 46.1463ZM173.557 47.1056L172.428 48.2615L173.583 47.1316C174.218 46.5099 174.739 45.9898 174.739 45.9756C174.739 45.9048 174.606 46.0317 173.557 47.1056ZM127.613 47.1794C127.638 47.3146 127.677 47.425 127.697 47.425C127.718 47.425 127.735 47.3146 127.735 47.1794C127.735 47.0442 127.697 46.9332 127.65 46.9332C127.604 46.9332 127.587 47.0442 127.613 47.1794ZM114.188 47.9173C114.188 48.1062 114.208 48.1842 114.233 48.0891C114.258 47.9947 114.258 47.8394 114.233 47.7449C114.208 47.6505 114.188 47.7278 114.188 47.9173ZM129.53 49.2456C129.531 49.4617 129.551 49.539 129.575 49.4162C129.598 49.294 129.597 49.1169 129.573 49.0231C129.548 48.9286 129.529 49.029 129.53 49.2456ZM170.117 50.4263C169.878 50.6696 169.705 50.8691 169.732 50.8691C169.758 50.8691 169.976 50.6696 170.215 50.4263C170.454 50.1825 170.628 49.9836 170.6 49.9836C170.573 49.9836 170.356 50.1825 170.117 50.4263ZM171.833 50.7953L171.444 51.2133L171.862 50.8242C172.251 50.4623 172.326 50.3767 172.251 50.3767C172.235 50.3767 172.047 50.5651 171.833 50.7953ZM112.321 50.8195C112.323 51.0362 112.343 51.1129 112.366 50.9907C112.39 50.8685 112.389 50.6914 112.364 50.5969C112.34 50.5031 112.321 50.6034 112.321 50.8195ZM113.893 51.4594C113.893 51.6484 113.913 51.7263 113.938 51.6312C113.963 51.5368 113.963 51.3815 113.938 51.2871C113.913 51.1926 113.893 51.2699 113.893 51.4594ZM128.058 52.0002C128.059 52.2712 128.078 52.3698 128.101 52.2204C128.123 52.0711 128.123 51.8497 128.099 51.7287C128.076 51.6076 128.057 51.7298 128.058 52.0002ZM112.221 52.345C112.221 52.5339 112.242 52.6118 112.266 52.5168C112.291 52.4223 112.291 52.2671 112.266 52.1726C112.242 52.0781 112.221 52.1555 112.221 52.345ZM113.801 53.2305C113.801 53.5281 113.82 53.6497 113.842 53.5009C113.865 53.3521 113.865 53.1083 113.842 52.9595C113.82 52.8108 113.801 52.9324 113.801 53.2305ZM129.928 54.903C129.928 55.2005 129.946 55.3221 129.969 55.1734C129.991 55.0246 129.991 54.7814 129.969 54.6326C129.946 54.4838 129.928 54.6054 129.928 54.903ZM130.021 56.7231C130.023 56.9397 130.043 57.0165 130.066 56.8943C130.09 56.7721 130.089 56.5949 130.064 56.5005C130.04 56.4066 130.021 56.507 130.021 56.7231ZM111.931 57.0182C111.933 57.2892 111.951 57.3878 111.974 57.2384C111.997 57.0891 111.996 56.8677 111.973 56.7467C111.949 56.6256 111.931 56.7478 111.931 57.0182ZM128.353 57.7072C128.354 57.9776 128.373 58.0767 128.396 57.9274C128.418 57.7774 128.418 57.556 128.394 57.435C128.371 57.314 128.352 57.4368 128.353 57.7072ZM111.83 58.9865C111.831 59.2025 111.851 59.2799 111.875 59.1571C111.898 59.0349 111.897 58.8578 111.873 58.7639C111.848 58.6695 111.829 58.7698 111.83 58.9865ZM113.505 59.3797C113.505 59.6506 113.525 59.7492 113.547 59.5999C113.57 59.4505 113.569 59.2291 113.546 59.1081C113.523 58.9871 113.504 59.1093 113.505 59.3797ZM128.457 60.2162C128.457 60.6223 128.474 60.7882 128.495 60.5852C128.516 60.3821 128.516 60.0503 128.495 59.8472C128.474 59.6441 128.457 59.8106 128.457 60.2162ZM113.379 61.5244C113.379 61.6572 113.234 61.6897 112.518 61.7175L111.658 61.7499L112.521 61.77C113.353 61.7895 113.681 61.6667 113.44 61.4252C113.406 61.3916 113.379 61.4364 113.379 61.5244ZM133.439 61.6921L132.504 61.7529L133.408 61.7718C133.926 61.7824 134.338 61.7482 134.373 61.6921C134.406 61.6378 134.42 61.6023 134.403 61.6124C134.386 61.623 133.952 61.6584 133.439 61.6921ZM147.549 61.6921L146.566 61.7523L147.519 61.7712C148.069 61.7824 148.497 61.7487 148.533 61.6921C148.566 61.6378 148.58 61.6023 148.563 61.613C148.546 61.623 148.09 61.659 147.549 61.6921ZM128.94 61.7647C129.197 61.7848 129.617 61.7848 129.874 61.7647C130.131 61.744 129.92 61.7275 129.407 61.7275C128.893 61.7275 128.683 61.744 128.94 61.7647ZM177.962 61.7647C178.248 61.7848 178.69 61.7842 178.945 61.7641C179.201 61.744 178.967 61.7275 178.426 61.7281C177.885 61.7281 177.676 61.7446 177.962 61.7647ZM184.842 61.7659C186.37 61.7812 188.87 61.7812 190.398 61.7659C191.926 61.7505 190.676 61.7381 187.62 61.7381C184.564 61.7381 183.314 61.7505 184.842 61.7659Z" fill="#9CD09C"/>
        <path fill-rule="evenodd" clip-rule="evenodd" d="M158.931 1.45109L234.524 1.47589L234.55 18.1286L234.575 34.7819L234.574 18.1044L234.574 1.42689H158.956L83.3374 1.4263L158.931 1.45109ZM144.771 8.92321C144.866 8.94801 145.021 8.94801 145.115 8.92321C145.21 8.89842 145.132 8.87834 144.943 8.87834C144.754 8.87834 144.677 8.89842 144.771 8.92321ZM104.209 9.02593C104.439 9.04659 104.815 9.04659 105.045 9.02593C105.274 9.00527 105.086 8.98815 104.626 8.98815C104.167 8.98815 103.979 9.00527 104.209 9.02593ZM118.811 9.02534C119.014 9.0466 119.346 9.0466 119.549 9.02534C119.752 9.00409 119.586 8.98697 119.18 8.98697C118.775 8.98697 118.608 9.00409 118.811 9.02534ZM131.056 9.02593C131.287 9.04659 131.641 9.0466 131.843 9.02534C132.044 9.00409 131.855 8.98697 131.422 8.98756C130.99 8.98756 130.825 9.00527 131.056 9.02593ZM160.652 9.0277C162.45 9.04246 165.393 9.04246 167.191 9.0277C168.989 9.01235 167.518 8.99996 163.921 8.99996C160.325 8.99996 158.854 9.01235 160.652 9.0277ZM177.72 9.0277C179.171 9.04305 181.516 9.04305 182.931 9.0277C184.347 9.01235 183.161 8.99937 180.294 8.99937C177.428 8.99937 176.269 9.01235 177.72 9.0277ZM190.005 9.02593C190.261 9.04659 190.682 9.04659 190.939 9.02593C191.195 9.00586 190.985 8.98933 190.471 8.98933C189.957 8.98933 189.747 9.00586 190.005 9.02593ZM199.609 9.1257C199.498 9.27211 199.499 9.27979 199.616 9.17529C199.709 9.09264 200.11 9.05191 200.836 9.05191H201.918L201.529 9.47047L201.141 9.88844L201.555 9.50353C201.782 9.29159 201.946 9.08143 201.917 9.03597C201.809 8.86004 199.75 8.93974 199.609 9.1257ZM198.678 10.1588L198.289 10.5774L198.707 10.1883C198.937 9.97404 199.125 9.78631 199.125 9.77037C199.125 9.69539 199.039 9.77037 198.678 10.1588ZM211.98 10.3041C212.154 10.3253 212.464 10.3259 212.668 10.3046C212.872 10.2834 212.729 10.2657 212.351 10.2651C211.972 10.2645 211.805 10.2822 211.98 10.3041ZM152.662 10.725C152.874 10.941 153.068 11.1181 153.095 11.1181C153.123 11.1181 152.972 10.941 152.761 10.725C152.55 10.5083 152.354 10.3312 152.327 10.3312C152.301 10.3312 152.451 10.5083 152.662 10.725ZM145.017 10.4989C145.139 10.5225 145.338 10.5225 145.46 10.4989C145.581 10.4758 145.482 10.4564 145.238 10.4564C144.995 10.4564 144.895 10.4758 145.017 10.4989ZM147.525 10.4977C147.619 10.5219 147.774 10.5219 147.869 10.4977C147.963 10.4729 147.886 10.4522 147.696 10.4522C147.507 10.4522 147.43 10.4729 147.525 10.4977ZM194.208 14.6113C193.969 14.8545 193.796 15.054 193.823 15.054C193.85 15.054 194.067 14.8545 194.306 14.6113C194.545 14.3675 194.719 14.1685 194.692 14.1685C194.664 14.1685 194.447 14.3675 194.208 14.6113ZM195.388 15.5954C195.149 15.8386 194.976 16.0382 195.003 16.0382C195.03 16.0382 195.247 15.8386 195.486 15.5954C195.725 15.3516 195.899 15.1526 195.872 15.1526C195.844 15.1526 195.627 15.3516 195.388 15.5954ZM103.176 15.6934C103.177 15.9101 103.197 15.9868 103.221 15.8646C103.245 15.7424 103.244 15.5653 103.219 15.4708C103.194 15.377 103.176 15.4773 103.176 15.6934ZM120.579 16.1362C120.579 16.3257 120.599 16.403 120.624 16.3085C120.649 16.2141 120.649 16.0588 120.624 15.9644C120.599 15.8693 120.579 15.9467 120.579 16.1362ZM104.846 16.4313C104.846 16.6208 104.867 16.6982 104.891 16.6037C104.915 16.5093 104.915 16.354 104.891 16.2595C104.867 16.1645 104.846 16.2418 104.846 16.4313ZM192.236 16.5051L191.897 16.8741L192.266 16.5352C192.61 16.2194 192.68 16.1362 192.605 16.1362C192.589 16.1362 192.423 16.3026 192.236 16.5051ZM180.744 16.7997L184.587 16.8275L184.554 17.6091C184.537 18.0389 184.558 18.3547 184.601 18.3116C184.644 18.2679 184.666 17.9049 184.65 17.5046L184.621 16.7761L180.761 16.7743L176.901 16.7726L180.744 16.7997ZM118.911 17.7106C118.911 17.9539 118.931 18.0536 118.955 17.932C118.978 17.8104 118.978 17.6109 118.955 17.4893C118.931 17.3676 118.911 17.4668 118.911 17.7106ZM104.748 17.9072C104.748 18.0967 104.768 18.1741 104.793 18.0796C104.818 17.9852 104.818 17.8299 104.793 17.7354C104.768 17.6404 104.748 17.7177 104.748 17.9072ZM144.378 18.5702C144.689 18.5903 145.198 18.5903 145.509 18.5702C145.82 18.5507 145.565 18.5348 144.943 18.5348C144.321 18.5348 144.067 18.5507 144.378 18.5702ZM119.008 19.5307C119.009 19.7474 119.029 19.8241 119.053 19.7019C119.076 19.5797 119.075 19.4026 119.051 19.3081C119.026 19.2143 119.007 19.3146 119.008 19.5307ZM102.879 20.0721C102.879 20.2616 102.899 20.3389 102.924 20.2444C102.949 20.1494 102.949 19.9947 102.924 19.8997C102.899 19.8052 102.879 19.8826 102.879 20.0721ZM144.427 20.1447C144.765 20.1642 145.318 20.1642 145.656 20.1447C145.994 20.1258 145.718 20.1098 145.041 20.1098C144.366 20.1098 144.089 20.1258 144.427 20.1447ZM135.011 20.3661C135.011 20.428 133.66 20.4729 131.3 20.49L127.587 20.5172L131.349 20.5408C134.637 20.5609 135.11 20.5455 135.11 20.4162C135.11 20.3354 135.088 20.2686 135.061 20.2686C135.034 20.2686 135.011 20.3123 135.011 20.3661ZM120.874 20.6624C120.874 20.8519 120.894 20.9293 120.919 20.8348C120.944 20.7398 120.944 20.5851 120.919 20.49C120.894 20.3956 120.874 20.4729 120.874 20.6624ZM102.785 21.7445C102.785 21.9884 102.804 22.0881 102.827 21.9659C102.851 21.8443 102.851 21.6454 102.827 21.5232C102.804 21.4015 102.785 21.5013 102.785 21.7445ZM196.617 22.3349C196.883 22.6059 197.124 22.8272 197.151 22.8272C197.178 22.8272 196.982 22.6059 196.716 22.3349C196.449 22.0645 196.209 21.8431 196.183 21.8431C196.155 21.8431 196.351 22.0645 196.617 22.3349ZM120.976 22.3349C120.976 22.5787 120.996 22.6785 121.02 22.5563C121.043 22.4347 121.043 22.2357 121.02 22.1135C120.996 21.9919 120.976 22.0917 120.976 22.3349ZM127.013 22.1135C126.987 22.1542 128.95 22.1873 131.373 22.1873C133.797 22.1873 135.759 22.1542 135.734 22.1135C135.709 22.0734 133.746 22.0397 131.373 22.0397C129 22.0397 127.038 22.0734 127.013 22.1135ZM104.459 24.106C104.459 24.4035 104.478 24.5257 104.5 24.3769C104.523 24.2282 104.523 23.9843 104.5 23.8356C104.478 23.6868 104.459 23.8084 104.459 24.106ZM207.581 24.057C207.765 24.2465 207.937 24.4011 207.964 24.4011C207.991 24.4011 207.863 24.2465 207.68 24.057C207.496 23.8675 207.324 23.7128 207.297 23.7128C207.27 23.7128 207.398 23.8675 207.581 24.057ZM119.309 26.2218C119.309 26.5465 119.327 26.6675 119.349 26.4904C119.372 26.3133 119.371 26.0476 119.349 25.9C119.326 25.7525 119.308 25.8971 119.309 26.2218ZM211.69 25.753C211.976 25.7731 212.419 25.7725 212.674 25.7525C212.929 25.7324 212.695 25.7159 212.154 25.7164C211.613 25.7164 211.405 25.733 211.69 25.753ZM104.36 26.517C104.36 26.7873 104.38 26.8865 104.402 26.7366C104.425 26.5872 104.424 26.3658 104.401 26.2448C104.377 26.1238 104.359 26.246 104.36 26.517Z" fill="#545454"/>
        <path fill-rule="evenodd" clip-rule="evenodd" d="M157.381 18.0058C157.381 22.9577 157.392 24.9832 157.407 22.5073C157.421 20.0313 157.421 15.9803 157.407 13.5044C157.392 11.0284 157.381 13.0539 157.381 18.0058ZM170.459 18.0058C170.459 22.9577 170.471 24.9832 170.485 22.5073C170.5 20.0313 170.5 15.9803 170.485 13.5044C170.471 11.0284 170.459 13.0539 170.459 18.0058ZM185.49 9.78985C185.491 10.2232 185.508 10.3879 185.529 10.1565C185.55 9.92504 185.549 9.57083 185.528 9.36952C185.507 9.16762 185.49 9.35712 185.49 9.78985ZM189.536 18.0058C189.536 22.9577 189.547 24.9832 189.562 22.5073C189.576 20.0313 189.576 15.9803 189.562 13.5044C189.547 11.0284 189.536 13.0539 189.536 18.0058ZM142.04 18.1534C142.041 23.0238 142.052 25.0021 142.067 22.5492C142.081 20.0963 142.081 16.1114 142.067 13.6939C142.052 11.2764 142.04 13.283 142.04 18.1534ZM159.15 18.7438C159.15 23.2895 159.162 25.1349 159.177 22.8444C159.192 20.5538 159.192 16.8346 159.177 14.5794C159.162 12.3242 159.15 14.198 159.15 18.7438ZM143.808 14.6113C143.808 16.8298 143.821 17.752 143.837 16.6592C143.853 15.5671 143.853 13.7517 143.837 12.6253C143.821 11.4989 143.808 12.3927 143.808 14.6113ZM197.299 11.6347L197.011 11.9547L197.33 11.6654C197.628 11.3962 197.695 11.3153 197.619 11.3153C197.602 11.3153 197.458 11.4588 197.299 11.6347ZM196.613 14.3899L196.224 14.8079L196.642 14.4194C196.872 14.2051 197.06 14.0168 197.06 14.0009C197.06 13.9265 196.974 14.0009 196.613 14.3899ZM104.846 15.841C104.846 16.0305 104.867 16.1078 104.891 16.0134C104.916 15.9189 104.916 15.7636 104.891 15.6692C104.867 15.5741 104.846 15.6515 104.846 15.841ZM205.549 18.0548C205.549 18.4338 205.567 18.5767 205.588 18.3724C205.61 18.1682 205.609 17.8582 205.588 17.6841C205.566 17.5093 205.548 17.6764 205.549 18.0548ZM178.739 18.3748C179.776 18.3907 181.502 18.3907 182.574 18.3748C183.646 18.3588 182.797 18.3459 180.687 18.3459C178.578 18.3459 177.701 18.3588 178.739 18.3748ZM146.246 18.5684C146.395 18.5909 146.639 18.5909 146.787 18.5684C146.936 18.546 146.814 18.5271 146.516 18.5271C146.219 18.5271 146.098 18.546 146.246 18.5684ZM143.808 23.5156C143.808 25.4366 143.821 26.223 143.837 25.2625C143.853 24.302 143.853 22.7298 143.837 21.7693C143.821 20.8088 143.808 21.5946 143.808 23.5156ZM102.783 22.4825C102.784 22.6991 102.804 22.7759 102.828 22.6537C102.851 22.5315 102.851 22.3544 102.826 22.2599C102.801 22.166 102.782 22.2664 102.783 22.4825ZM104.458 23.1714C104.459 23.4418 104.478 23.541 104.501 23.3916C104.523 23.2417 104.523 23.0203 104.499 22.8993C104.476 22.7782 104.457 22.901 104.458 23.1714ZM120.975 23.0728C120.976 23.2895 120.996 23.3662 121.02 23.244C121.043 23.1218 121.042 22.9447 121.018 22.8503C120.993 22.7564 120.974 22.8568 120.975 23.0728ZM119.308 25.1887C119.308 25.4862 119.326 25.6078 119.349 25.459C119.371 25.3103 119.371 25.0665 119.349 24.9177C119.326 24.7689 119.308 24.8905 119.308 25.1887ZM206.201 25.1149C206.442 25.3717 206.652 25.5818 206.668 25.5818C206.742 25.5818 206.664 25.4939 206.23 25.0859L205.762 24.6473L206.201 25.1149ZM104.354 25.779C104.354 25.9679 104.374 26.0459 104.399 25.9508C104.424 25.8564 104.424 25.7011 104.399 25.6066C104.374 25.5122 104.354 25.5895 104.354 25.779Z" fill="#888B87"/>
        <path fill-rule="evenodd" clip-rule="evenodd" d="M155.44 53.2996C155.562 53.3232 155.761 53.3232 155.883 53.2996C156.005 53.2766 155.905 53.2571 155.661 53.2571C155.418 53.2571 155.319 53.2766 155.44 53.2996ZM153.572 54.8776C153.91 54.8965 154.463 54.8965 154.801 54.8776C155.139 54.8581 154.863 54.8428 154.186 54.8428C153.511 54.8428 153.234 54.8581 153.572 54.8776ZM138.337 56.8464C139.544 56.8618 141.491 56.8618 142.664 56.8458C143.837 56.8305 142.849 56.8175 140.469 56.8175C138.089 56.8175 137.13 56.8305 138.337 56.8464ZM113.499 60.6099C113.499 60.7989 113.52 60.8768 113.544 60.7817C113.569 60.6873 113.569 60.532 113.544 60.4376C113.52 60.3431 113.499 60.4204 113.499 60.6099ZM121.114 69.2439C141.891 69.2575 175.919 69.2575 196.733 69.2439C217.545 69.2303 200.546 69.2191 158.956 69.2191C117.366 69.2191 100.337 69.2303 121.114 69.2439Z" fill="#6BB264"/>
        <path fill-rule="evenodd" clip-rule="evenodd" d="M158.931 36.282L234.524 36.3068L234.55 52.714L234.575 69.1205L234.574 52.6892L234.574 36.2578H158.956L83.3374 36.2572L158.931 36.282ZM155.296 43.6603C155.555 43.6804 155.953 43.6804 156.181 43.6597C156.409 43.639 156.198 43.6225 155.711 43.6225C155.224 43.6231 155.037 43.6402 155.296 43.6603ZM182.062 52.7382C182.062 57.6901 182.074 59.7156 182.089 57.2396C182.103 54.7643 182.103 50.7127 182.089 48.2367C182.074 45.7614 182.062 47.7869 182.062 52.7382ZM207.797 44.5458L207.778 45.2578L204.951 45.2849L202.124 45.3127L204.954 45.3357C208.161 45.3623 207.906 45.4384 207.852 44.4632L207.816 43.8338L207.797 44.5458ZM186.029 45.3345C187.236 45.3499 189.183 45.3499 190.355 45.3339C191.528 45.3186 190.54 45.3056 188.161 45.3056C185.781 45.3056 184.822 45.3186 186.029 45.3345ZM195.905 45.3339C196.702 45.3505 198.007 45.3505 198.805 45.3339C199.603 45.3174 198.95 45.3038 197.355 45.3038C195.76 45.3038 195.107 45.3174 195.905 45.3339Z" fill="#86CC86"/>
        <path fill-rule="evenodd" clip-rule="evenodd" d="M112.951 43.76C112.926 43.8008 113.296 43.8338 113.772 43.8338C114.248 43.8338 114.618 43.8008 114.592 43.76C114.568 43.7193 114.198 43.6862 113.772 43.6862C113.346 43.6862 112.976 43.7193 112.951 43.76ZM127.505 43.76C127.479 43.8008 127.709 43.8214 128.015 43.8061C128.975 43.7583 129.091 43.7164 128.306 43.701C127.89 43.6927 127.529 43.7193 127.505 43.76ZM139.697 43.76C139.673 43.8008 139.924 43.8214 140.257 43.8061C141.275 43.76 141.396 43.7164 140.549 43.701C140.106 43.6927 139.723 43.7193 139.697 43.76ZM167.388 43.7583L168.249 43.7919V47.9209C168.249 51.7824 168.281 52.2966 168.504 51.9359C168.547 51.8662 168.531 51.8491 168.462 51.8922C168.378 51.9435 168.343 50.9039 168.324 47.8483L168.298 43.7352L167.413 43.7299L166.528 43.7246L167.388 43.7583ZM177.221 43.7589C177.532 43.7783 178.042 43.7783 178.352 43.7589C178.663 43.7394 178.409 43.7234 177.787 43.7234C177.165 43.7234 176.911 43.7394 177.221 43.7589ZM187.247 43.7595L192.43 43.7866L192.465 44.4986L192.5 45.2111L192.494 44.4732L192.488 43.7352L187.276 43.7341L182.064 43.7329L187.247 43.7595ZM197.83 43.76C199.686 43.7748 202.695 43.7748 204.516 43.76C206.337 43.7453 204.819 43.7329 201.141 43.7329C197.463 43.7329 195.973 43.7453 197.83 43.76ZM194.438 44.5718C194.438 44.9779 194.455 45.1438 194.477 44.9408C194.498 44.7377 194.498 44.4059 194.477 44.2028C194.455 43.9997 194.438 44.1662 194.438 44.5718ZM155.244 45.2342C155.474 45.2548 155.85 45.2548 156.08 45.2342C156.309 45.2135 156.121 45.1964 155.662 45.1964C155.202 45.1964 155.014 45.2135 155.244 45.2342ZM152.954 49.3436C152.954 51.5628 152.967 52.4843 152.982 51.3921C152.998 50.3 152.998 48.4847 152.982 47.3577C152.967 46.2313 152.954 47.1251 152.954 49.3436ZM200.254 53.5257C200.254 58.0443 200.266 59.8927 200.28 57.6334C200.295 55.3741 200.295 51.6767 200.28 49.4174C200.266 47.1581 200.254 49.0065 200.254 53.5257ZM172.769 47.7939L172.133 48.4581L172.796 47.8217C173.162 47.4716 173.46 47.1723 173.46 47.1575C173.46 47.0849 173.36 47.177 172.769 47.7939ZM161.3 49.196C161.3 49.6022 161.317 49.7681 161.339 49.565C161.36 49.3625 161.36 49.0301 161.339 48.8271C161.317 48.6246 161.3 48.7905 161.3 49.196ZM129.725 51.1643C129.725 51.3532 129.745 51.4311 129.77 51.3361C129.794 51.2416 129.794 51.0863 129.77 50.9919C129.745 50.8974 129.725 50.9748 129.725 51.1643ZM127.955 51.5574C127.955 51.747 127.975 51.8243 128 51.7298C128.024 51.6354 128.024 51.4801 128 51.3857C127.975 51.2906 127.955 51.3685 127.955 51.5574ZM185.721 51.5327C186.758 51.5486 188.484 51.5486 189.556 51.5327C190.627 51.5173 189.778 51.5037 187.669 51.5037C185.56 51.5037 184.683 51.5167 185.721 51.5327ZM170.609 52.0002C170.482 52.1348 170.397 52.2623 170.42 52.2824C170.442 52.3025 170.564 52.1921 170.69 52.0368C170.972 51.6891 170.921 51.6667 170.609 52.0002ZM113.893 52.7382C113.893 52.9277 113.913 53.005 113.938 52.9105C113.963 52.8161 113.963 52.6608 113.938 52.5664C113.913 52.4713 113.893 52.5492 113.893 52.7382ZM112.123 52.9353C112.123 53.1242 112.143 53.2022 112.168 53.1071C112.193 53.0127 112.193 52.8574 112.168 52.763C112.143 52.6685 112.123 52.7458 112.123 52.9353ZM168.294 57.3134C168.294 59.7486 168.307 60.731 168.322 59.4959C168.338 58.2615 168.338 56.2691 168.322 55.0683C168.307 53.8681 168.294 54.8782 168.294 57.3134ZM185.721 53.2057C186.758 53.2217 188.484 53.2217 189.556 53.2057C190.627 53.1898 189.778 53.1768 187.669 53.1768C185.56 53.1768 184.683 53.1898 185.721 53.2057ZM152.953 58.2975C152.953 60.1914 152.966 60.9524 152.982 59.9883C152.998 59.0243 152.998 57.4746 152.982 56.5448C152.966 55.615 152.953 56.4037 152.953 58.2975ZM130.02 55.3948C130.02 55.5843 130.04 55.6616 130.065 55.5671C130.089 55.4727 130.089 55.3174 130.065 55.223C130.04 55.1279 130.02 55.2058 130.02 55.3948ZM128.254 56.7726C128.254 57.0159 128.273 57.1156 128.296 56.994C128.32 56.8718 128.32 56.6729 128.296 56.5513C128.273 56.4291 128.254 56.5288 128.254 56.7726ZM173.555 57.092C173.962 57.5265 174.05 57.605 174.05 57.5307C174.05 57.5153 173.84 57.3046 173.583 57.0637L173.116 56.6251L173.555 57.092ZM130.12 57.412C130.121 57.6287 130.141 57.7054 130.165 57.5832C130.188 57.4604 130.187 57.2833 130.163 57.1894C130.138 57.0956 130.119 57.1953 130.12 57.412ZM111.83 57.5106C111.831 57.7267 111.851 57.804 111.875 57.6812C111.898 57.559 111.897 57.3819 111.873 57.288C111.848 57.1936 111.829 57.2939 111.83 57.5106ZM113.604 58.3961C113.604 58.6665 113.623 58.7657 113.646 58.6157C113.668 58.4664 113.668 58.245 113.644 58.124C113.621 58.0029 113.602 58.1251 113.604 58.3961ZM128.354 59.4782C128.354 59.7486 128.373 59.8478 128.396 59.6984C128.418 59.5485 128.418 59.3271 128.394 59.2061C128.371 59.0851 128.352 59.2079 128.354 59.4782ZM111.731 59.7734C111.733 59.9901 111.753 60.0668 111.776 59.9446C111.8 59.8218 111.799 59.6447 111.775 59.5509C111.75 59.457 111.731 59.5568 111.731 59.7734ZM113.504 61.2983C113.504 61.5421 113.523 61.6419 113.546 61.5197C113.57 61.3981 113.57 61.1991 113.546 61.0769C113.523 60.9553 113.504 61.0551 113.504 61.2983Z" fill="#57B752"/>
    </g>
    <defs>
        <clipPath id="clip0_428_199">
            <rect width="236" height="71" fill="white"/>
        </clipPath>
    </defs>
</svg>