<svg width="24" height="24" viewBox="0 0 24 24" fill="none" xmlns="http://www.w3.org/2000/svg">
  <path d="M22 5.995C22 5.445 21.554 5 21.005 5H10.995C10.7311 5 10.478 5.10483 10.2914 5.29143C10.1048 5.47803 10 5.73111 10 5.995C10 6.25889 10.1048 6.51197 10.2914 6.69857C10.478 6.88517 10.7311 6.99 10.995 6.99H21.005C21.2689 6.99 21.522 6.88517 21.7086 6.69857C21.8952 6.51197 22 6.25889 22 5.995ZM22 12C22 11.45 21.554 11.005 21.005 11.005H2.995C2.73111 11.005 2.47803 11.1098 2.29143 11.2964C2.10483 11.483 2 11.7361 2 12C2 12.2639 2.10483 12.517 2.29143 12.7036C2.47803 12.8902 2.73111 12.995 2.995 12.995H21.005C21.2689 12.995 21.522 12.8902 21.7086 12.7036C21.8952 12.517 22 12.2639 22 12ZM21.005 17.01C21.2689 17.01 21.522 17.1148 21.7086 17.3014C21.8952 17.488 22 17.7411 22 18.005C22 18.2689 21.8952 18.522 21.7086 18.7086C21.522 18.8952 21.2689 19 21.005 19H6.995C6.73111 19 6.47803 18.8952 6.29143 18.7086C6.10483 18.522 6 18.2689 6 18.005C6 17.7411 6.10483 17.488 6.29143 17.3014C6.47803 17.1148 6.73111 17.01 6.995 17.01H21.005Z" fill="#3CAC34"/>
</svg>