<svg width="14" height="14" viewBox="0 0 16 16" fill="currentColor" xmlns="http://www.w3.org/2000/svg">
    <path d="M15.5 11.6833V14.63C15.5001 14.841 15.4202 15.0441 15.2763 15.1985C15.1325 15.3528 14.9355 15.4469 14.725 15.4617C14.3611 15.4872 14.0639 15.5 13.8333 15.5C6.46917 15.5 0.5 9.53083 0.5 2.16667C0.5 1.93667 0.512778 1.63944 0.538333 1.275C0.553102 1.06454 0.647151 0.867509 0.801503 0.723674C0.955855 0.579839 1.15902 0.499905 1.37 0.5H4.31667C4.42003 0.499896 4.51975 0.538216 4.59644 0.607517C4.67313 0.676818 4.72133 0.772152 4.73167 0.875C4.75056 1.06611 4.76833 1.21944 4.785 1.335C4.9506 2.49077 5.28999 3.61487 5.79167 4.66917C5.87083 4.83583 5.81917 5.035 5.66917 5.14167L3.87083 6.42667C4.97059 8.98856 7.01227 11.0302 9.57417 12.13L10.8575 10.335C10.9097 10.2614 10.9863 10.2086 11.0736 10.1859C11.161 10.1632 11.2535 10.172 11.335 10.2108C12.3892 10.7116 13.513 11.0501 14.6683 11.215C14.7839 11.2317 14.9367 11.2494 15.1267 11.2683C15.2294 11.2789 15.3245 11.3271 15.3936 11.4038C15.4628 11.4805 15.5001 11.5801 15.5 11.6833Z" fill="currentColor"/>
</svg>