<svg width="18" height="19" viewBox="0 0 18 19" fill="none" xmlns="http://www.w3.org/2000/svg">
    <path fill-rule="evenodd" clip-rule="evenodd" d="M1.99983 8.5C1.99983 7.71207 2.15503 6.93185 2.45656 6.2039C2.75808 5.47595 3.20004 4.81451 3.75719 4.25736C4.31434 3.70021 4.97578 3.25825 5.70373 2.95672C6.43169 2.65519 7.2119 2.5 7.99983 2.5C8.78776 2.5 9.56798 2.65519 10.2959 2.95672C11.0239 3.25825 11.6853 3.70021 12.2425 4.25736C12.7996 4.81451 13.2416 5.47595 13.5431 6.2039C13.8446 6.93185 13.9998 7.71207 13.9998 8.5C13.9998 10.0913 13.3677 11.6174 12.2425 12.7426C11.1173 13.8679 9.59113 14.5 7.99983 14.5C6.40853 14.5 4.88241 13.8679 3.75719 12.7426C2.63197 11.6174 1.99983 10.0913 1.99983 8.5ZM7.99983 0.5C6.72669 0.500182 5.47198 0.804218 4.33997 1.38684C3.20797 1.96946 2.23136 2.81384 1.49132 3.8498C0.751273 4.88577 0.269166 6.0834 0.0850628 7.34315C-0.0990404 8.60291 0.0201774 9.88842 0.432808 11.0928C0.845439 12.2973 1.53957 13.3858 2.4575 14.268C3.37543 15.1502 4.49067 15.8006 5.71051 16.1651C6.93035 16.5296 8.21958 16.5977 9.47104 16.3638C10.7225 16.1298 11.9001 15.6006 12.9058 14.82L16.2928 18.207C16.4814 18.3892 16.734 18.49 16.9962 18.4877C17.2584 18.4854 17.5092 18.3802 17.6947 18.1948C17.8801 18.0094 17.9852 17.7586 17.9875 17.4964C17.9898 17.2342 17.889 16.9816 17.7068 16.793L14.3198 13.406C15.2379 12.2235 15.8058 10.807 15.9588 9.31777C16.1118 7.82851 15.8439 6.32619 15.1855 4.98165C14.5271 3.6371 13.5046 2.50429 12.2343 1.71202C10.964 0.919759 9.49693 0.499834 7.99983 0.5ZM7.99983 12.5C9.0607 12.5 10.0781 12.0786 10.8283 11.3284C11.5784 10.5783 11.9998 9.56087 11.9998 8.5C11.9998 7.43913 11.5784 6.42172 10.8283 5.67157C10.0781 4.92143 9.0607 4.5 7.99983 4.5C6.93897 4.5 5.92155 4.92143 5.17141 5.67157C4.42126 6.42172 3.99983 7.43913 3.99983 8.5C3.99983 9.56087 4.42126 10.5783 5.17141 11.3284C5.92155 12.0786 6.93897 12.5 7.99983 12.5Z" fill="#3CAC34"/>
</svg>