<svg width="32" height="32" viewBox="0 0 38 38" fill="none" xmlns="http://www.w3.org/2000/svg">
    <path d="M10 34.5C11.1046 34.5 12 33.6046 12 32.5C12 31.3954 11.1046 30.5 10 30.5C8.89543 30.5 8 31.3954 8 32.5C8 33.6046 8.89543 34.5 10 34.5Z" fill="#3CAC34"/>
    <path d="M23 34.5C24.1046 34.5 25 33.6046 25 32.5C25 31.3954 24.1046 30.5 23 30.5C21.8954 30.5 21 31.3954 21 32.5C21 33.6046 21.8954 34.5 23 34.5Z" fill="#3CAC34"/>
    <path d="M5.2875 14.5H27.7125L24.4125 26.05C24.2948 26.4692 24.0426 26.8381 23.6948 27.1001C23.3471 27.362 22.9229 27.5025 22.4875 27.5H10.5125C10.0771 27.5025 9.65293 27.362 9.30515 27.1001C8.95738 26.8381 8.70524 26.4692 8.5875 26.05L4.0625 10.225C4.0027 10.0159 3.8764 9.83207 3.70271 9.70125C3.52903 9.57042 3.31744 9.49977 3.1 9.5H1" stroke="#3CAC34" stroke-width="2" stroke-linecap="round" stroke-linejoin="round"/>
    <rect x="15.25" y="0.75" width="21.5" height="18.5" rx="9.25" fill="#3CAC34"/>
    <rect x="15.25" y="0.75" width="21.5" height="18.5" rx="9.25" stroke="white" stroke-width="1.5"/>
    <path d="M27.2288 11.08L25.4288 13H28.8728V14.5H23.1488V13.144L25.9208 10.204C26.0568 10.068 26.2568 9.856 26.5208 9.568C26.9208 9.088 27.1208 8.644 27.1208 8.236C27.1208 7.876 26.9968 7.584 26.7488 7.36C26.5008 7.128 26.1848 7.012 25.8008 7.012C25.1528 7.012 24.4768 7.34 23.7728 7.996L22.8848 6.82C23.7808 5.924 24.7928 5.476 25.9208 5.476C26.7448 5.476 27.4288 5.728 27.9728 6.232C28.5088 6.736 28.7768 7.384 28.7768 8.176C28.7768 9.008 28.2608 9.976 27.2288 11.08Z" fill="white"/>
</svg>