<svg width="32" height="33" viewBox="0 0 32 33" fill="none" xmlns="http://www.w3.org/2000/svg">
    <path d="M32 16.7139C32 25.5504 24.8366 32.7139 16 32.7139C7.16344 32.7139 0 25.5504 0 16.7139C0 7.87731 7.16344 0.713867 16 0.713867C24.8366 0.713867 32 7.87731 32 16.7139Z" fill="#3CAC34"/>
    <path d="M14.2 19.2853L18.871 16.7139L14.2 14.1424V19.2853ZM24.604 12.5739C24.721 12.9767 24.802 13.5167 24.856 14.2024C24.919 14.8882 24.946 15.4796 24.946 15.9939L25 16.7139C25 18.591 24.856 19.971 24.604 20.8539C24.379 21.6253 23.857 22.1224 23.047 22.3367C22.624 22.4482 21.85 22.5253 20.662 22.5767C19.492 22.6367 18.421 22.6624 17.431 22.6624L16 22.7139C12.229 22.7139 9.88 22.5767 8.953 22.3367C8.143 22.1224 7.621 21.6253 7.396 20.8539C7.279 20.451 7.198 19.911 7.144 19.2253C7.081 18.5396 7.054 17.9482 7.054 17.4339L7 16.7139C7 14.8367 7.144 13.4567 7.396 12.5739C7.621 11.8024 8.143 11.3053 8.953 11.091C9.376 10.9796 10.15 10.9024 11.338 10.851C12.508 10.791 13.579 10.7653 14.569 10.7653L16 10.7139C19.771 10.7139 22.12 10.851 23.047 11.091C23.857 11.3053 24.379 11.8024 24.604 12.5739Z" fill="#F8F8F8"/>
</svg>